<svg width="141" height="38" viewBox="0 0 141 38" fill="none" xmlns="http://www.w3.org/2000/svg">
<path d="M2.976 30V7.6H5.696V30H2.976ZM16.1755 30V10.064H9.0395V7.6H25.9995V10.064H18.8635V30H16.1755ZM36.4878 30.384C35.2504 30.384 34.1518 30.256 33.1918 30C32.2318 29.7227 31.3998 29.3493 30.6958 28.88C29.9918 28.3893 29.4158 27.856 28.9678 27.28C28.5198 26.6827 28.1891 26.0533 27.9758 25.392L30.5677 24.496C30.8877 25.4347 31.5278 26.256 32.4878 26.96C33.4691 27.6427 34.6638 27.984 36.0718 27.984C37.7998 27.984 39.1544 27.6427 40.1358 26.96C41.1171 26.2773 41.6078 25.3707 41.6078 24.24C41.6078 23.1947 41.1704 22.352 40.2958 21.712C39.4211 21.0507 38.2691 20.5387 36.8398 20.176L34.3758 19.536C33.3731 19.28 32.4451 18.9067 31.5918 18.416C30.7598 17.904 30.0878 17.264 29.5758 16.496C29.0851 15.7067 28.8398 14.768 28.8398 13.68C28.8398 11.6533 29.4904 10.0747 30.7918 8.944C32.1144 7.792 34.0131 7.216 36.4878 7.216C37.9598 7.216 39.2291 7.46133 40.2958 7.952C41.3624 8.42133 42.2264 9.02933 42.8878 9.776C43.5704 10.5013 44.0504 11.2907 44.3278 12.144L41.7678 13.04C41.3624 11.9733 40.6798 11.1413 39.7198 10.544C38.7598 9.92533 37.5971 9.616 36.2318 9.616C34.8024 9.616 33.6611 9.968 32.8078 10.672C31.9758 11.3547 31.5598 12.2933 31.5598 13.488C31.5598 14.512 31.8904 15.3013 32.5518 15.856C33.2131 16.3893 34.0771 16.784 35.1438 17.04L37.6078 17.648C39.7838 18.16 41.4478 19.0133 42.5998 20.208C43.7731 21.3813 44.3598 22.6507 44.3598 24.016C44.3598 25.1893 44.0611 26.2667 43.4638 27.248C42.8664 28.208 41.9811 28.976 40.8078 29.552C39.6558 30.1067 38.2158 30.384 36.4878 30.384Z" fill="#0A0A0A"/>
<path d="M49.976 30V7.6H52.728L66.072 25.584V7.6H68.792V30H66.072L52.696 11.92V30H49.976ZM73.0933 30L92.6133 7.6H95.5573L75.9733 30H73.0933ZM84.3893 30.384C82.2346 30.384 80.3253 29.8933 78.6613 28.912C77.0186 27.9307 75.7173 26.5653 74.7573 24.816C73.8186 23.0667 73.3493 21.0613 73.3493 18.8C73.3493 16.5173 73.8186 14.512 74.7573 12.784C75.6959 11.0347 76.9866 9.66933 78.6293 8.688C80.2719 7.70667 82.1599 7.216 84.2933 7.216C86.4479 7.216 88.3466 7.71733 89.9893 8.72C91.6533 9.70133 92.9439 11.0667 93.8613 12.816C94.7999 14.544 95.2693 16.5387 95.2693 18.8C95.2693 21.0613 94.7999 23.0667 93.8613 24.816C92.9439 26.5653 91.6639 27.9307 90.0213 28.912C88.3999 29.8933 86.5226 30.384 84.3893 30.384ZM84.3893 27.92C85.9893 27.92 87.3973 27.536 88.6133 26.768C89.8293 25.9787 90.7893 24.9013 91.4933 23.536C92.1973 22.1707 92.5493 20.592 92.5493 18.8C92.5493 17.0293 92.1866 15.4613 91.4613 14.096C90.7573 12.7093 89.7866 11.632 88.5493 10.864C87.3333 10.0747 85.9146 9.68 84.2933 9.68C82.7146 9.68 81.2959 10.0747 80.0373 10.864C78.7999 11.632 77.8293 12.7093 77.1253 14.096C76.4213 15.4613 76.0693 17.0293 76.0693 18.8C76.0693 20.592 76.4213 22.1707 77.1253 23.536C77.8506 24.9013 78.8426 25.9787 80.1013 26.768C81.3599 27.536 82.7893 27.92 84.3893 27.92ZM109.995 30.384C107.712 30.384 105.696 29.8933 103.947 28.912C102.198 27.9093 100.822 26.544 99.819 24.816C98.8377 23.0667 98.347 21.072 98.347 18.832C98.347 16.5493 98.8377 14.544 99.819 12.816C100.822 11.0667 102.198 9.70133 103.947 8.72C105.696 7.71733 107.712 7.216 109.995 7.216C111.19 7.216 112.352 7.41867 113.483 7.824C114.614 8.208 115.648 8.74133 116.587 9.424C117.526 10.1067 118.283 10.8853 118.859 11.76L116.715 13.232C116.288 12.5493 115.712 11.9413 114.987 11.408C114.262 10.8533 113.462 10.4267 112.587 10.128C111.734 9.82933 110.87 9.68 109.995 9.68C108.267 9.68 106.731 10.0747 105.387 10.864C104.043 11.632 102.987 12.6987 102.219 14.064C101.451 15.4293 101.067 17.0187 101.067 18.832C101.067 20.5813 101.44 22.1493 102.187 23.536C102.955 24.9013 104.011 25.9787 105.355 26.768C106.72 27.5573 108.267 27.952 109.995 27.952C111.446 27.952 112.726 27.6533 113.835 27.056C114.966 26.4373 115.851 25.5947 116.491 24.528C117.131 23.44 117.451 22.192 117.451 20.784L120.043 20.592C120.043 22.5547 119.616 24.272 118.763 25.744C117.91 27.1947 116.726 28.336 115.211 29.168C113.696 29.9787 111.958 30.384 109.995 30.384ZM111.947 20.912V18.576H120.043V20.688L118.763 20.912H111.947ZM124.164 30V7.6H137.412V10.064H126.884V17.296H136.484V19.728H126.884V27.536H137.476V30H124.164Z" fill="#0A0A0A"/>
</svg>
