<svg width="140" height="38" viewBox="0 0 140 38" fill="none" xmlns="http://www.w3.org/2000/svg">
<path d="M2.656 30V7.6H6.368V30H2.656ZM16.3273 30V10.992H9.44725V7.6H26.9193V10.992H20.0393V30H16.3273ZM37.3598 30.384C36.1864 30.384 35.1091 30.2453 34.1278 29.968C33.1678 29.6907 32.3144 29.3067 31.5677 28.816C30.8424 28.3253 30.2344 27.7813 29.7438 27.184C29.2744 26.5653 28.9438 25.9253 28.7518 25.264L32.3998 24.144C32.6771 24.9333 33.2211 25.6267 34.0318 26.224C34.8424 26.8213 35.8451 27.1307 37.0398 27.152C38.4264 27.152 39.5251 26.864 40.3358 26.288C41.1464 25.712 41.5518 24.9547 41.5518 24.016C41.5518 23.1627 41.2104 22.4693 40.5278 21.936C39.8451 21.3813 38.9278 20.9547 37.7758 20.656L35.0238 19.952C33.9784 19.6747 33.0291 19.2693 32.1758 18.736C31.3438 18.2027 30.6824 17.5307 30.1918 16.72C29.7224 15.9093 29.4878 14.9493 29.4878 13.84C29.4878 11.7493 30.1704 10.128 31.5358 8.976C32.9011 7.80267 34.8531 7.216 37.3918 7.216C38.8211 7.216 40.0691 7.44 41.1358 7.888C42.2238 8.31467 43.1198 8.912 43.8238 9.68C44.5278 10.4267 45.0504 11.28 45.3918 12.24L41.8078 13.392C41.4878 12.5387 40.9331 11.8347 40.1438 11.28C39.3544 10.7253 38.3731 10.448 37.1998 10.448C35.9838 10.448 35.0238 10.736 34.3198 11.312C33.6371 11.888 33.2958 12.688 33.2958 13.712C33.2958 14.544 33.5624 15.1947 34.0958 15.664C34.6504 16.112 35.3971 16.4533 36.3358 16.688L39.0878 17.36C41.0931 17.8507 42.6504 18.6933 43.7598 19.888C44.8691 21.0827 45.4237 22.4053 45.4237 23.856C45.4237 25.136 45.1144 26.2667 44.4958 27.248C43.8771 28.2293 42.9598 28.9973 41.7438 29.552C40.5491 30.1067 39.0878 30.384 37.3598 30.384Z" fill="#0A0A0A"/>
<path d="M49.656 30V7.6H53.496L65.4 23.792V7.6H69.112V30H65.4L53.368 13.616V30H49.656ZM72.9013 30L92.3573 7.6H95.8773L76.3893 30H72.9013ZM84.3893 30.384C82.1919 30.384 80.2399 29.8933 78.5333 28.912C76.8266 27.9307 75.4826 26.5653 74.5013 24.816C73.5413 23.0667 73.0613 21.0613 73.0613 18.8C73.0613 16.5387 73.5413 14.544 74.5013 12.816C75.4613 11.0667 76.7839 9.70133 78.4693 8.72C80.1759 7.71733 82.1279 7.216 84.3253 7.216C86.5439 7.216 88.4959 7.71733 90.1813 8.72C91.8666 9.70133 93.1893 11.0667 94.1493 12.816C95.1093 14.544 95.5893 16.5387 95.5893 18.8C95.5893 21.0613 95.1093 23.0667 94.1493 24.816C93.2106 26.5653 91.8986 27.9307 90.2133 28.912C88.5279 29.8933 86.5866 30.384 84.3893 30.384ZM84.4213 26.992C85.8719 26.992 87.1519 26.64 88.2613 25.936C89.3706 25.232 90.2346 24.272 90.8533 23.056C91.4933 21.8187 91.8133 20.4 91.8133 18.8C91.8133 17.2213 91.4933 15.8133 90.8533 14.576C90.2133 13.3387 89.3279 12.3787 88.1973 11.696C87.0879 10.992 85.7973 10.64 84.3253 10.64C82.8746 10.64 81.5839 10.992 80.4533 11.696C79.3226 12.3787 78.4373 13.3387 77.7973 14.576C77.1573 15.792 76.8373 17.2 76.8373 18.8C76.8373 20.4 77.1573 21.8187 77.7973 23.056C78.4586 24.272 79.3546 25.232 80.4853 25.936C81.6373 26.64 82.9493 26.992 84.4213 26.992ZM109.897 30.384C107.635 30.384 105.619 29.8933 103.849 28.912C102.099 27.9093 100.723 26.544 99.7208 24.816C98.7181 23.0667 98.2168 21.072 98.2168 18.832C98.2168 16.5493 98.7181 14.544 99.7208 12.816C100.723 11.0667 102.099 9.70133 103.849 8.72C105.619 7.71733 107.635 7.216 109.897 7.216C111.198 7.216 112.414 7.41867 113.545 7.824C114.697 8.22933 115.731 8.784 116.649 9.488C117.566 10.1707 118.313 10.9707 118.889 11.888L115.881 13.808C115.475 13.1893 114.953 12.6347 114.313 12.144C113.673 11.6533 112.969 11.28 112.201 11.024C111.454 10.7467 110.686 10.608 109.897 10.608C108.361 10.608 106.995 10.96 105.801 11.664C104.627 12.368 103.699 13.3387 103.017 14.576C102.334 15.792 101.993 17.2107 101.993 18.832C101.993 20.4107 102.323 21.8187 102.985 23.056C103.667 24.2933 104.606 25.264 105.801 25.968C107.017 26.672 108.414 27.024 109.993 27.024C111.23 27.024 112.339 26.768 113.321 26.256C114.302 25.744 115.07 25.0293 115.625 24.112C116.201 23.1947 116.489 22.1387 116.489 20.944L120.041 20.496C120.041 22.5227 119.603 24.2827 118.729 25.776C117.875 27.248 116.681 28.3893 115.145 29.2C113.63 29.9893 111.881 30.384 109.897 30.384ZM111.113 21.232V18.224H120.041V20.72L118.057 21.232H111.113ZM123.625 30V7.6H137.417V10.992H127.337V16.944H136.233V20.272H127.337V26.608H137.513V30H123.625Z" fill="#0A0A0A"/>
</svg>
