<svg width="59" height="60" viewBox="0 0 59 60" fill="none" xmlns="http://www.w3.org/2000/svg">
<path d="M58.0645 29.5082C58.0645 45.8051 45.0663 59.0164 29.0323 59.0164C12.9982 59.0164 0 45.8051 0 29.5082C0 13.2113 12.9982 0 29.0323 0C45.0663 0 58.0645 13.2113 58.0645 29.5082Z" fill="#0A0A0A"/>
<path d="M11.68 46L40.864 12.4H46.144L16.912 46H11.68ZM28.912 46.576C25.616 46.576 22.688 45.84 20.128 44.368C17.568 42.896 15.552 40.848 14.08 38.224C12.64 35.6 11.92 32.592 11.92 29.2C11.92 25.808 12.64 22.816 14.08 20.224C15.52 17.6 17.504 15.552 20.032 14.08C22.592 12.576 25.52 11.824 28.816 11.824C32.144 11.824 35.072 12.576 37.6 14.08C40.128 15.552 42.112 17.6 43.552 20.224C44.992 22.816 45.712 25.808 45.712 29.2C45.712 32.592 44.992 35.6 43.552 38.224C42.144 40.848 40.176 42.896 37.648 44.368C35.12 45.84 32.208 46.576 28.912 46.576ZM28.96 41.488C31.136 41.488 33.056 40.96 34.72 39.904C36.384 38.848 37.68 37.408 38.608 35.584C39.568 33.728 40.048 31.6 40.048 29.2C40.048 26.832 39.568 24.72 38.608 22.864C37.648 21.008 36.32 19.568 34.624 18.544C32.96 17.488 31.024 16.96 28.816 16.96C26.64 16.96 24.704 17.488 23.008 18.544C21.312 19.568 19.984 21.008 19.024 22.864C18.064 24.688 17.584 26.8 17.584 29.2C17.584 31.6 18.064 33.728 19.024 35.584C20.016 37.408 21.36 38.848 23.056 39.904C24.784 40.96 26.752 41.488 28.96 41.488Z" fill="white"/>
</svg>
